<svg data-name="Layer 1" viewBox="0 0 64 64" id="Layer_1" xmlns="http://www.w3.org/2000/svg">
 <ellipse stroke-width="0.25" ry="10.85" cx="35.8" stroke="#fff" cy="34.64" fill-opacity="1" rx="11.1" stroke-miterlimit="10" fill="#ffffff"/>
 <path stroke="#fff" d="M52.55,15.28H51.27a2.83,2.83,0,0,0,0-.29h0a5,5,0,0,0-5-5H24.11a5,5,0,0,0-5,5h0a2.83,2.83,0,0,0,0,.29H11.45a6.07,6.07,0,0,0-6,6.06v26.6a6.07,6.07,0,0,0,6,6.06h41.1a6.07,6.07,0,0,0,6-6.06V21.34A6.07,6.07,0,0,0,52.55,15.28Zm-39,12a4,4,0,1,1,4.09-4A4,4,0,0,1,13.59,27.31ZM35.8,49A14.71,14.71,0,0,1,20.9,34.49,14.71,14.71,0,0,1,35.8,20,14.71,14.71,0,0,1,50.7,34.49,14.71,14.71,0,0,1,35.8,49Z" fill-opacity="1" stroke-width="0.25" stroke-miterlimit="10" fill="#ffffff"/>
 <ellipse stroke-width="0.25" ry="2.64" cx="13.59" stroke="#fff" cy="23.49" fill-opacity="1" rx="2.63" stroke-miterlimit="10" fill="#ffffff"/>
</svg>
