<svg data-name="Layer 1" viewBox="0 0 64 64" id="Layer_1" xmlns="http://www.w3.org/2000/svg">
 <g id="map">
  <rect width="64" height="64" fill="#010101"/>
  <polygon points="4.6 30.9 23.2 58.2 30.7 49.2 11.9 25.9 4.6 30.9" fill="#28a2c6"/>
  <path d="M13.5,25.8l18,22.5,15-5.9-9.8-9-2.8,3a2.4,2.4,0,0,1-1.6.7H32a3.3,3.3,0,0,1-2.3-1L20.4,25.6" fill="#28a2c6"/>
  <polyline points="37.4 32.6 47.8 41.7 58.8 33.1 43.5 25.2" fill="#28a2c6"/>
  <path d="M44,24.2l-.5,1,7.6,3.9,7.7,4c0,.1-5.6,4.5-10.4,8.1l-.6.5-5.2-4.5-5.2-4.6-.3.3c-.2.2-.4.4-.4.5s2.3,2.1,5,4.5,4.9,4.4,4.8,4.5-15,6-15,5.9-4.1-5.1-9.1-11.2L13.5,25.8h6.9l-.7-1-.6-1.1H11.2L6.7,26.8C2,30,1.8,30.1,2,30.8S22.3,60.9,22.7,61.1s.9.1,1.5-.5l4.4-5.4,3.9-4.9,8-3.2,8-3.1,6.2-4.8L61.4,34c.6-.6.8-1,.6-1.5s-.6-.6-11.3-6l-6.1-3.2ZM20.9,37c4.8,6.1,9,11.3,9.3,11.6l.5.6L27,53.7c-2,2.4-3.7,4.5-3.8,4.5L4.8,31.2l-.2-.3,3.6-2.5,3.7-2.5Z" fill="#fff"/>
  <path d="M29.9,2.9a12.7,12.7,0,0,0-7.2,3.8A12.5,12.5,0,0,0,19,15.8c0,3.8,1.3,7,4.8,11.1,1.3,1.5,5.6,6.4,7.2,8.1l1,1,1.9-2.2c3.2-3.7,6.6-7.8,7.5-9a18.8,18.8,0,0,0,3.4-7,7.5,7.5,0,0,0,.2-2.2,12.3,12.3,0,0,0-3.9-9.1,12.6,12.6,0,0,0-6.8-3.6A16.2,16.2,0,0,0,29.9,2.9Zm3.4,6.9a6.6,6.6,0,0,1,5,4.8,6.4,6.4,0,0,1-9,7.2,6.3,6.3,0,0,1-1.8-10.3A6.1,6.1,0,0,1,33.3,9.8Z" fill="#ed2024"/>
 </g>
</svg>
